<svg width="269" height="118" viewBox="0 0 269 118" fill="none" xmlns="http://www.w3.org/2000/svg">
<path d="M15.0675 64.5264C14.1362 67.7859 12.9303 70.9126 12.584 74.3224C12.1773 78.3274 14.3793 82.2904 19.0687 80.6231C25.1719 78.4531 29.5675 72.1008 31.1642 66.1131C32.0682 62.7232 32.2974 59.146 33.2567 55.7882C34.1795 52.5586 31.0046 62.1189 29.7615 65.2393C27.4921 70.9359 26.2229 76.8279 24.5186 82.6927C22.2383 90.5396 19.8921 98.3888 16.3553 105.78C14.5494 109.554 11.9494 114.787 7.52509 116.105C2.23903 117.679 1.81142 109.358 2.69609 106.194C5.59881 95.8129 19.1407 90.5532 27.4849 85.6361C37.5172 79.7242 48.399 73.8192 56.6889 65.4922C58.9978 63.173 72.3883 47.3336 64.5992 45.4404C55.3611 43.195 41.5098 48.6842 40.4083 59.1915C39.7242 65.7165 43.6898 69.8575 47.3298 74.7823C48.7831 76.7485 50.0806 78.0812 50.6181 80.5771C51.0705 82.6773 51.8158 86.5039 50.5951 88.4875C48.5728 91.7738 46.3003 89.3373 45.3522 86.6708C43.1891 80.5869 48.1776 78.1034 53.5385 77.2658C56.4295 76.8141 59.6691 76.7227 62.5987 76.9669C63.9309 77.0779 63.9094 78.1438 63.9094 79.2434C63.9094 83.4997 61.3306 86.004 56.9648 86.004C55.3074 86.004 55.2172 84.9749 55.2172 83.5665C55.2172 81.2676 57.202 79.6099 58.8964 78.3006C60.2565 77.2496 63.4095 75.4618 65.3351 76.162C66.9074 76.7338 66.668 80.4877 66.3009 81.5889C66.2011 81.8883 64.5707 83.5871 64.4153 83.1986C63.4297 80.7347 68.395 78.8341 69.7962 78.4615C70.3065 78.3259 74.9954 77.0227 75.0851 78.2776C75.1803 79.6113 75.263 81.3023 74.6252 82.5087C73.7784 84.1102 66.7448 89.2213 67.2207 84.3943C67.7041 79.4908 83.5758 77.5525 83.7773 80.0712C83.874 81.2801 83.1628 88.1471 80.236 85.774C79.5667 85.2313 78.0537 82.5165 78.7643 81.7269C80.6642 79.6159 85.1177 79.6346 87.6405 79.5193C90.9442 79.3683 92.129 79.6852 90.7218 82.9686C90.2248 84.1283 89.5759 85.1507 88.3303 85.5441C87.4618 85.8183 87.5921 83.9564 87.6635 83.6355C88.3573 80.5132 91.5845 78.393 94.562 77.8637C97.5498 77.3325 97.0225 78.77 97.0225 81.267C97.0225 82.1649 96.364 83.8884 97.5514 83.8884C102.936 83.8884 108.856 82.535 113.556 79.8873C117.659 77.5756 122.335 72.7518 123.72 68.1137C125.724 61.4046 126.286 43.0248 114.43 48.2688C111.951 49.3652 110.848 51.386 109.693 53.6957C108.461 56.1599 108.557 55.2296 106.612 53.0288C104.393 50.5191 98.7468 43.4879 94.7 46.2222C90.3053 49.1916 88.6488 54.2508 92.2395 58.4557C100.874 68.5672 113.564 73.7903 120.984 85.1302C123.456 88.9085 124.816 92.2288 124.755 96.7198C124.722 99.0929 124.364 102.86 121.167 102.974C116.978 103.124 115.862 98.2679 116.89 95.1561C119.826 86.2782 127.545 80.2152 133.447 73.3566C145.783 59.0208 155.295 42.7637 161.294 24.7677C162.29 21.7794 163.663 18.3829 163.663 15.1787C163.663 12.4184 162.517 20.5792 161.915 23.273C156.783 46.2264 149.59 68.7367 149.59 92.4886C149.59 92.9464 150.008 96.9559 149.498 97.5936C149.389 97.7293 149.194 97.399 149.107 97.2486C148.315 95.8836 146.791 91.9765 146.462 91.1549C142.316 80.7883 138.541 70.2181 136.482 59.2145C135.786 55.4919 135.517 51.8354 135.517 48.0619C135.517 45.2536 136.782 47.3701 138.69 48.9357C147.204 55.9237 155.884 63.0738 163.019 71.517C165.52 74.4766 168.041 77.625 168.216 81.6349C168.24 82.1937 168.647 85.809 167.71 86.05C164.845 86.7866 161.639 79.3763 161.133 77.4957C159.991 73.2459 161.315 69.7592 166.054 69.9073C168.954 69.9979 170.55 74.6166 170.193 77.0358C169.82 79.5689 166.993 80.3795 167.066 77.1738C167.207 70.9507 183.998 68.8559 183.944 72.2988C183.892 75.6801 178.148 81.9576 174.93 78.0016C172.974 75.5965 174.094 71.7783 175.873 69.6544C178.612 66.3855 183.472 65.1139 187.44 66.619C191.572 68.1865 190.631 74.0459 188.038 76.7829C187.116 77.7558 184.579 79.0675 184.22 76.9669C183.504 72.7695 186.727 71.4582 190.268 70.8271C192.852 70.3667 194.308 69.7117 195.12 72.2298C195.535 73.5152 195.742 74.9876 195.304 76.3C194.666 78.2146 194.684 75.6541 194.867 75.0123C195.044 74.3944 197.842 70.395 197.995 72.2988C198.132 74.0219 198.018 75.7908 198.018 77.5187C198.018 77.9529 198.224 76.6526 198.477 76.3C199.158 75.3527 200.257 74.8724 201.329 74.5294C205.598 73.1633 206.183 75.9863 207.308 79.5653C207.416 79.9105 207.818 80.7753 207.951 80.4391C209.73 75.9679 211.005 70.9698 212.459 66.435C218.088 48.8772 224.292 31.1296 227.612 12.9481C228.25 9.45466 228.669 -1.1362 229.061 2.39334C229.176 3.42378 229.061 4.52904 229.061 5.56668C229.061 6.86974 229.061 8.1728 229.061 9.47586C229.061 13.0091 229.682 18.225 227.313 21.2954C226.632 22.1783 225.775 22.313 225.244 23.411C224.386 25.1842 223.31 26.7809 222.163 28.3779C218.559 33.3915 213.341 35.2514 207.538 36.7022C204.813 37.3834 196.592 39.2225 199.305 38.4958C202.189 37.7235 205.205 37.4227 208.158 37.1161C219.307 35.9589 230.495 35.1147 241.662 34.1727C241.896 34.153 266.944 30.8978 267.141 33.069C267.2 33.7187 266.284 34.3404 265.899 34.7246" stroke="black" stroke-width="3" stroke-linecap="round"/>
</svg>
